<svg width="11" height="12" viewBox="0 0 11 12" fill="none" xmlns="http://www.w3.org/2000/svg">
<path d="M5.5 6.22222C6.22935 6.22222 6.92882 5.94127 7.44454 5.44117C7.96027 4.94108 8.25 4.2628 8.25 3.55556C8.25 2.84831 7.96027 2.17003 7.44454 1.66994C6.92882 1.16984 6.22935 0.888889 5.5 0.888889C4.77065 0.888889 4.07118 1.16984 3.55546 1.66994C3.03973 2.17003 2.75 2.84831 2.75 3.55556C2.75 4.2628 3.03973 4.94108 3.55546 5.44117C4.07118 5.94127 4.77065 6.22222 5.5 6.22222ZM5.5 7.11111C4.52754 7.11111 3.59491 6.73651 2.90727 6.06971C2.21964 5.40292 1.83333 4.49855 1.83333 3.55556C1.83333 2.61256 2.21964 1.70819 2.90727 1.0414C3.59491 0.374602 4.52754 0 5.5 0C6.47246 0 7.40509 0.374602 8.09272 1.0414C8.78036 1.70819 9.16667 2.61256 9.16667 3.55556C9.16667 4.49855 8.78036 5.40292 8.09272 6.06971C7.40509 6.73651 6.47246 7.11111 5.5 7.11111ZM10.0833 11.5556V10.2222C10.0833 9.8686 9.93847 9.52946 9.68061 9.27941C9.42274 9.02936 9.07301 8.88889 8.70833 8.88889H2.29167C1.92699 8.88889 1.57726 9.02936 1.31939 9.27941C1.06153 9.52946 0.916667 9.8686 0.916667 10.2222V11.5556C0.916667 11.6734 0.868378 11.7865 0.782424 11.8698C0.69647 11.9532 0.579891 12 0.458333 12C0.336776 12 0.220197 11.9532 0.134243 11.8698C0.0482886 11.7865 0 11.6734 0 11.5556V10.2222C0 9.63285 0.241443 9.06762 0.671214 8.65087C1.10098 8.23413 1.68388 8 2.29167 8H8.70833C9.31612 8 9.89902 8.23413 10.3288 8.65087C10.7586 9.06762 11 9.63285 11 10.2222V11.5556C11 11.6734 10.9517 11.7865 10.8658 11.8698C10.7798 11.9532 10.6632 12 10.5417 12C10.4201 12 10.3035 11.9532 10.2176 11.8698C10.1316 11.7865 10.0833 11.6734 10.0833 11.5556Z" fill="#1E1E1E"/>
</svg>
