<svg width="13" height="13" viewBox="0 0 13 13" fill="none" xmlns="http://www.w3.org/2000/svg">
<path d="M3.34364 0.604119C3.7946 1.22831 4.33241 2.03392 4.9546 3.01861C5.11135 3.28474 5.08723 3.60409 4.88466 3.97909C4.80749 4.13635 4.61215 4.49441 4.30106 5.05812C4.6435 5.54199 5.1644 6.13715 5.86618 6.83877C6.56795 7.54038 7.15157 8.06538 7.61699 8.40893C8.17648 8.07989 8.53581 7.87909 8.69256 7.79926C8.89514 7.69039 9.09048 7.63474 9.27617 7.63474C9.41604 7.63474 9.54144 7.6662 9.64996 7.7291C10.3662 8.167 11.1765 8.70652 12.0784 9.34523C12.2497 9.47103 12.3461 9.64282 12.3702 9.86056C12.3943 10.0807 12.3268 10.313 12.1725 10.5646C12.0953 10.6735 11.9699 10.8331 11.7987 11.046C11.6275 11.2565 11.3694 11.5227 11.027 11.842C10.6845 12.1614 10.4048 12.3235 10.1853 12.3235H10.1612C8.51409 12.2582 6.48354 11.0194 4.07919 8.60735C1.67243 6.19284 0.437701 4.15816 0.375 2.50332C0.375 2.28558 0.534164 2.0001 0.854905 1.64687C1.17323 1.29607 1.4361 1.04203 1.63625 0.884776C1.83882 0.729938 2.01004 0.604131 2.14991 0.509776C2.32114 0.38397 2.51647 0.323486 2.73352 0.323486C3.0012 0.323486 3.20136 0.417841 3.34365 0.604131L3.34364 0.604119ZM2.57195 1.09522C2.24398 1.3299 1.93767 1.59359 1.64828 1.88149C1.3613 2.17181 1.19249 2.38471 1.14667 2.52504C1.20937 3.97907 2.36452 5.82987 4.61453 8.07987C6.86454 10.3299 8.71422 11.4936 10.1612 11.571C10.2866 11.525 10.4916 11.3533 10.7809 11.0557C11.0703 10.7581 11.3308 10.446 11.5623 10.1194C11.6081 10.0565 11.625 10.0033 11.6081 9.95488C10.6748 9.29924 9.8959 8.77666 9.2713 8.38471C9.20859 8.38471 9.13142 8.4089 9.03737 8.45487C8.8975 8.53229 8.54782 8.72826 7.98592 9.04035L7.58801 9.27503L7.1901 9.01616C6.67643 8.6581 6.05426 8.10164 5.32113 7.35164C4.59042 6.61858 4.04541 5.99197 3.68608 5.47665L3.40634 5.10165L3.64026 4.68069C3.95135 4.1194 4.14669 3.76618 4.22386 3.62585C4.26968 3.5315 4.2938 3.45408 4.2938 3.39118C3.73913 2.50326 3.22548 1.72182 2.75764 1.04924H2.73353C2.67324 1.04924 2.61777 1.06618 2.57195 1.09521V1.09522Z" fill="black"/>
</svg>
