<svg width="12" height="12" viewBox="0 0 12 12" fill="none" xmlns="http://www.w3.org/2000/svg">
<path d="M6 0C7.5913 0 9.11742 0.632141 10.2426 1.75736C11.3679 2.88258 12 4.4087 12 6C12 7.5913 11.3679 9.11742 10.2426 10.2426C9.11742 11.3679 7.5913 12 6 12C4.4087 12 2.88258 11.3679 1.75736 10.2426C0.632141 9.11742 0 7.5913 0 6C0 4.4087 0.632141 2.88258 1.75736 1.75736C2.88258 0.632141 4.4087 0 6 0ZM6 11.1429C7.36397 11.1429 8.67208 10.601 9.63655 9.63655C10.601 8.67208 11.1429 7.36397 11.1429 6C11.1429 4.63603 10.601 3.32792 9.63655 2.36345C8.67208 1.39898 7.36397 0.857143 6 0.857143C4.63603 0.857143 3.32792 1.39898 2.36345 2.36345C1.39898 3.32792 0.857143 4.63603 0.857143 6C0.857143 7.36397 1.39898 8.67208 2.36345 9.63655C3.32792 10.601 4.63603 11.1429 6 11.1429ZM6.64286 8.78571C6.64286 8.95621 6.57513 9.11972 6.45457 9.24028C6.33401 9.36084 6.1705 9.42857 6 9.42857C5.8295 9.42857 5.66599 9.36084 5.54543 9.24028C5.42487 9.11972 5.35714 8.95621 5.35714 8.78571C5.35714 8.61522 5.42487 8.4517 5.54543 8.33115C5.66599 8.21059 5.8295 8.14286 6 8.14286C6.1705 8.14286 6.33401 8.21059 6.45457 8.33115C6.57513 8.4517 6.64286 8.61522 6.64286 8.78571ZM6 2.57143C6.11366 2.57143 6.22267 2.61658 6.30305 2.69695C6.38342 2.77733 6.42857 2.88634 6.42857 3V6.85714C6.42857 6.97081 6.38342 7.07982 6.30305 7.16019C6.22267 7.24056 6.11366 7.28571 6 7.28571C5.88634 7.28571 5.77733 7.24056 5.69695 7.16019C5.61658 7.07982 5.57143 6.97081 5.57143 6.85714V3C5.57143 2.88634 5.61658 2.77733 5.69695 2.69695C5.77733 2.61658 5.88634 2.57143 6 2.57143Z" fill="#FF0000"/>
</svg>
