<svg width="65" height="65" viewBox="0 0 65 65" fill="none" xmlns="http://www.w3.org/2000/svg">
<g clip-path="url(#clip0_28642_650)">
<path d="M38.2525 45.6435C38.252 45.5562 38.2776 45.4707 38.3259 45.398C38.3743 45.3252 38.4433 45.2686 38.5241 45.2353C38.6048 45.202 38.6937 45.1936 38.7793 45.2111C38.8648 45.2286 38.9432 45.2713 39.0044 45.3337C39.0656 45.396 39.1068 45.4752 39.1227 45.5611C39.1386 45.6469 39.1285 45.7356 39.0937 45.8158C39.0589 45.8959 39.001 45.9638 38.9273 46.0108C38.8537 46.0578 38.7677 46.0817 38.6804 46.0796C38.6235 46.0796 38.5672 46.0683 38.5148 46.0462C38.4623 46.0242 38.4148 45.992 38.3749 45.9514C38.3351 45.9108 38.3037 45.8626 38.2827 45.8098C38.2617 45.7569 38.2514 45.7004 38.2525 45.6435ZM23.0669 45.2156C22.9509 45.2156 22.8396 45.2617 22.7576 45.3437C22.6756 45.4258 22.6295 45.537 22.6295 45.653C22.6295 45.769 22.6756 45.8803 22.7576 45.9623C22.8396 46.0443 22.9509 46.0904 23.0669 46.0904C23.1829 46.0904 23.2941 46.0443 23.3762 45.9623C23.4582 45.8803 23.5043 45.769 23.5043 45.653C23.5043 45.537 23.4582 45.4258 23.3762 45.3437C23.2941 45.2617 23.1829 45.2156 23.0669 45.2156ZM50.5131 43.4173V48.796C50.4732 49.5493 50.1364 50.2561 49.5766 50.7617C49.0167 51.2673 48.2793 51.5304 47.5258 51.4935H46.4858C45.7949 53.2376 44.7533 54.8213 43.4254 56.1465C43.3398 56.2275 43.2716 56.3251 43.2249 56.4333C43.1783 56.5416 43.1542 56.6583 43.1542 56.7761C43.1542 56.894 43.1783 57.0107 43.2249 57.1189C43.2716 57.2272 43.3398 57.3248 43.4254 57.4058L44.07 57.999C44.1538 58.0682 44.2231 58.1534 44.2738 58.2495C44.3245 58.3457 44.3557 58.451 44.3655 58.5592C44.3753 58.6675 44.3636 58.7767 44.331 58.8804C44.2984 58.9841 44.2456 59.0803 44.1756 59.1635C41.1261 62.9119 36.14 64.9919 30.4986 64.9919C28.0879 65.0637 25.6879 64.6451 23.4439 63.7615C21.1999 62.8778 19.1588 61.5476 17.4444 59.8515L17.4227 59.8244C17.2741 59.6564 17.16 59.4608 17.087 59.2487C17.014 59.0366 16.9836 58.8122 16.9974 58.5883C17.0112 58.3644 17.0691 58.1454 17.1676 57.9439C17.2662 57.7424 17.4035 57.5623 17.5717 57.414C17.6593 57.3321 17.7291 57.2331 17.7768 57.1232C17.8246 57.0132 17.8492 56.8947 17.8492 56.7748C17.8492 56.6549 17.8246 56.5363 17.7768 56.4264C17.7291 56.3164 17.6593 56.2175 17.5717 56.1356C16.2419 54.8184 15.203 53.237 14.5221 51.4935H13.5742C12.8196 51.5305 12.0811 51.2677 11.5195 50.7624C10.9578 50.2571 10.6187 49.5503 10.576 48.796V43.4173C10.6215 42.665 10.9618 41.9609 11.5231 41.4579C12.0844 40.9549 12.8214 40.6936 13.5742 40.7306H14.3135C15.2114 37.3906 17.1928 34.4432 19.9469 32.351C18.7958 29.3746 16.8188 23.5354 16.6211 18.7904C16.3123 12.1062 16.8404 0.211243 21.1927 -6.70156e-06C25.545 -0.208548 24.9086 10.9065 24.1719 18.1323C23.7866 22.1374 23.6744 26.164 23.8361 30.1844C25.9886 29.3922 28.2672 28.9976 30.5608 29.0198C32.1459 29.0159 33.7255 29.2041 35.2652 29.5804C35.9721 26.1462 37.6377 19.9008 40.7631 15.5079C45.2888 9.13791 50.0663 2.56208 53.2486 4.40374C56.4363 6.24541 52.4171 12.9079 49.6492 16.3935C46.8813 19.8792 42.1038 25.0846 40.5113 27.8417C39.9398 28.8817 39.3467 30.0165 38.8971 30.9644C40.8232 31.9547 42.521 33.3368 43.8815 35.0219C45.242 36.7071 46.2352 38.658 46.7973 40.7496H46.995V34.5042C46.9979 34.342 46.9533 34.1825 46.8667 34.0453C46.7801 33.9082 46.6552 33.7994 46.5075 33.7323C46.0712 33.5477 45.697 33.2419 45.4292 32.8512C45.1613 32.4605 45.0111 32.0012 44.9963 31.5277C45.0628 30.9004 45.3424 30.3149 45.7884 29.8688C46.2345 29.4228 46.82 29.1432 47.4473 29.0767C48.964 28.9142 50.3181 30.011 50.4806 31.5277C50.4657 31.9994 50.3169 32.457 50.0517 32.8474C49.7866 33.2377 49.4159 33.5446 48.9829 33.7323C48.8408 33.8037 48.7221 33.9144 48.641 34.0512C48.5599 34.188 48.5197 34.3452 48.5252 34.5042V40.3325C48.5238 40.4892 48.5662 40.6432 48.6475 40.7772C48.7288 40.9112 48.8459 41.0198 48.9856 41.0908C49.4318 41.297 49.8113 41.6239 50.0813 42.0346C50.3512 42.4452 50.5008 42.9233 50.5131 43.4146V43.4173ZM47.7452 32.6544C47.9014 32.6642 48.0579 32.6428 48.2057 32.5914C48.3535 32.54 48.4895 32.4596 48.6058 32.3549C48.7221 32.2502 48.8163 32.1233 48.8829 31.9818C48.9495 31.8402 48.9872 31.6867 48.9938 31.5304C48.9924 31.3137 48.9285 31.102 48.8096 30.9209C48.6908 30.7397 48.5221 30.5967 48.3239 30.5092C48.1256 30.4216 47.9063 30.3933 47.6924 30.4275C47.4784 30.4617 47.2789 30.557 47.1178 30.702C46.9568 30.847 46.8411 31.0354 46.7846 31.2446C46.7282 31.4538 46.7335 31.6749 46.7998 31.8812C46.8661 32.0875 46.9906 32.2702 47.1583 32.4074C47.326 32.5446 47.5299 32.6303 47.7452 32.6544ZM46.5996 42.074C46.865 43.374 47.0004 44.6929 47.0058 46.0173V47.0058H48.119C48.3491 47.0058 48.57 46.9152 48.7337 46.7534C48.8975 46.5917 48.9909 46.372 48.9938 46.1419V43.4146C48.9854 43.2237 48.9384 43.0365 48.8554 42.8643C48.7724 42.6922 48.6553 42.5388 48.5111 42.4134C48.3669 42.2879 48.1988 42.1932 48.0168 42.1348C47.8349 42.0765 47.6429 42.0558 47.4527 42.074H46.5996ZM36.5029 29.9379L38.1577 30.5825C40.0903 26.9621 42.2457 23.4653 44.6117 20.1121C48.1 15.4375 50.9411 10.4108 49.6817 9.63083C48.4223 8.85083 45.2996 12.9621 42.1769 18.051C40.0114 21.8766 38.1155 25.8485 36.5029 29.9379ZM25.5233 31.7579L25.564 35.3708C25.5633 35.5 25.5915 35.6276 25.6465 35.7444C25.7015 35.8613 25.7819 35.9644 25.8818 36.0461C25.9818 36.1279 26.0987 36.1863 26.2241 36.2171C26.3495 36.2478 26.4802 36.2502 26.6067 36.224C27.8998 35.9253 29.2228 35.7753 30.55 35.7771C31.876 35.772 33.1975 35.9293 34.4852 36.2456C34.6112 36.2694 34.7409 36.2652 34.8652 36.2335C34.9894 36.2017 35.1052 36.1431 35.2043 36.0617C35.3034 35.9804 35.3836 35.8783 35.439 35.7627C35.4944 35.6471 35.5239 35.5207 35.5252 35.3925V31.7579C35.5261 31.5644 35.462 31.3762 35.3431 31.2235C35.2243 31.0707 35.0576 30.9623 34.8698 30.9156C33.4482 30.5743 31.9903 30.4069 30.5283 30.4173C29.0673 30.4084 27.6106 30.5757 26.1896 30.9156C25.9998 30.9602 25.8307 31.0677 25.7097 31.2207C25.5887 31.3736 25.5231 31.5629 25.5233 31.7579ZM30.1438 50.3479V51.3879C29.9831 51.5992 29.7792 51.7738 29.5457 51.8999C29.3122 52.026 29.0544 52.1007 28.7896 52.1192C27.9581 52.1192 27.3352 50.9817 27.3352 50.9817C27.323 50.9583 27.3062 50.9377 27.2859 50.9209C27.2656 50.9041 27.2421 50.8916 27.2169 50.884C27.1917 50.8765 27.1652 50.874 27.139 50.8768C27.1128 50.8796 27.0874 50.8877 27.0644 50.9004L27.0563 50.9031C27.0139 50.929 26.9834 50.9704 26.9712 51.0185C26.9591 51.0666 26.9663 51.1175 26.9913 51.1604C27.021 51.2227 27.7496 52.501 28.7923 52.501C29.1646 52.4898 29.5257 52.3713 29.8323 52.1598C29.9773 52.0638 30.1473 52.0126 30.3212 52.0126C30.495 52.0126 30.665 52.0638 30.81 52.1598C31.1908 52.4069 31.6373 52.5334 32.0911 52.5227C32.4649 52.4501 32.8182 52.2959 33.1258 52.0712C33.4333 51.8465 33.6876 51.5568 33.8704 51.2227C33.8829 51.2009 33.8909 51.1768 33.8939 51.1518C33.897 51.1269 33.8951 51.1016 33.8883 51.0774C33.8815 51.0532 33.8699 51.0306 33.8543 51.0109C33.8387 50.9912 33.8193 50.9748 33.7973 50.9627C33.7751 50.9485 33.7501 50.939 33.724 50.935C33.6979 50.931 33.6712 50.9325 33.6457 50.9394C33.6202 50.9463 33.5964 50.9584 33.5759 50.975C33.5554 50.9916 33.5385 51.0123 33.5265 51.0358C33.5265 51.0981 32.9333 52.0758 32.0586 52.1381C31.7627 52.1291 31.4717 52.0598 31.2035 51.9346C30.9353 51.8093 30.6954 51.6307 30.4986 51.4096V50.3696C30.498 50.236 30.5289 50.1041 30.5886 49.9847C30.6484 49.8652 30.7353 49.7614 30.8425 49.6817C31.3733 49.2754 31.9665 48.6092 31.9665 48.3492C31.8894 48.0018 31.688 47.6947 31.4001 47.4857C31.1123 47.2766 30.7579 47.1801 30.4038 47.2144C29.3854 47.2144 28.6352 47.8915 28.6352 48.4548C28.6352 48.8177 29.3231 49.3702 29.7808 49.7006C29.8851 49.7753 29.9716 49.872 30.0343 49.9839C30.0971 50.0957 30.1344 50.22 30.1438 50.3479ZM21.079 31.5412L22.6417 30.7071C22.5875 27.6575 22.5469 22.1948 22.6417 18.4058C22.7852 12.889 23.0561 6.01791 21.2252 6.09104C19.3944 6.16416 18.1106 11.4535 18.8202 18.9773C19.2733 23.2128 20.0282 27.4105 21.079 31.5385V31.5412ZM12.1279 46.1419C12.1276 46.2556 12.1497 46.3682 12.1929 46.4733C12.2362 46.5785 12.2998 46.674 12.38 46.7545C12.4603 46.835 12.5556 46.8989 12.6606 46.9425C12.7656 46.9861 12.8782 47.0085 12.9919 47.0085H14.0752C14.0553 46.6784 14.0553 46.3474 14.0752 46.0173C14.079 44.6931 14.2114 43.3725 14.4706 42.074C14.3352 42.074 13.5498 42.074 13.4225 42.0685C13.2489 42.0721 13.0778 42.1097 12.9187 42.1794C12.7597 42.2491 12.616 42.3495 12.4958 42.4747C12.3756 42.6 12.2812 42.7477 12.2181 42.9094C12.155 43.0711 12.1243 43.2437 12.1279 43.4173V46.1419ZM14.6142 50.1285C14.4763 49.632 14.3651 49.1284 14.281 48.62C14.2488 48.414 14.144 48.2263 13.9856 48.0908C13.8272 47.9552 13.6256 47.8807 13.4171 47.8806H12.0792C12.0792 47.924 12.0738 48.8015 12.0792 48.8421C12.0916 49.0263 12.1401 49.2063 12.2221 49.3718C12.3041 49.5373 12.4179 49.685 12.557 49.8065C12.6961 49.928 12.8577 50.0209 13.0327 50.0798C13.2077 50.1388 13.3926 50.1627 13.5769 50.1502L14.6169 50.1285H14.6142ZM42.0415 58.0287L41.8031 57.8121C41.6604 57.6893 41.4818 57.6158 41.2939 57.6027C41.106 57.5895 40.9189 57.6373 40.7604 57.739C37.6585 59.6161 34.0823 60.5618 30.4579 60.4635C26.843 60.5546 23.2774 59.6092 20.1825 57.739C20.0243 57.6379 19.8377 57.5905 19.6504 57.6037C19.4631 57.6168 19.2851 57.6899 19.1425 57.8121L18.9042 58.0287C18.8198 58.1085 18.7525 58.2046 18.7065 58.3113C18.6606 58.4179 18.6369 58.5328 18.6369 58.649C18.6369 58.7651 18.6606 58.88 18.7065 58.9866C18.7525 59.0933 18.8198 59.1894 18.9042 59.2692C22.059 62.1844 26.2352 63.7393 30.5283 63.5971C34.8189 63.7334 38.9913 62.1792 42.1471 59.2692C42.225 59.1823 42.2842 59.0803 42.3212 58.9696C42.3581 58.8589 42.3719 58.7417 42.3617 58.6255C42.3516 58.5092 42.3177 58.3963 42.2621 58.2936C42.2066 58.191 42.1306 58.1008 42.0388 58.0287H42.0415ZM45.9658 46.0687C45.9658 39.4198 42.8431 34.3498 37.7731 31.915C37.639 31.8533 37.4917 31.826 37.3444 31.8356C37.1971 31.8452 37.0545 31.8913 36.9295 31.9698C36.8045 32.0482 36.7011 32.1567 36.6285 32.2852C36.5559 32.4137 36.5165 32.5583 36.5138 32.7058V36.3079C36.5175 36.4809 36.5718 36.649 36.67 36.7915C36.7682 36.9339 36.9059 37.0445 37.0663 37.1096C41.7598 39.0325 44.9963 43.03 44.9963 47.6098C44.9963 53.7604 39.1571 57.9258 30.5283 57.9258C21.9023 57.9258 16.0631 53.7523 16.0631 47.6098C16.0631 43.0327 19.2996 39.0325 23.9931 37.1096C24.1551 37.047 24.2945 36.937 24.3931 36.794C24.4916 36.651 24.5448 36.4816 24.5456 36.3079V32.7275C24.5444 32.5802 24.5062 32.4356 24.4346 32.3069C24.363 32.1782 24.2602 32.0695 24.1357 31.9908C24.0112 31.9121 23.8689 31.8659 23.722 31.8564C23.575 31.847 23.4279 31.8746 23.2944 31.9367C18.1838 34.3281 15.061 39.4306 15.061 46.039C15.061 54.1369 21.255 59.5698 30.5283 59.5698C39.8152 59.5698 45.9658 54.126 45.9658 46.0687ZM22.6498 44.6117H22.6417C22.2227 44.6131 21.8213 44.7807 21.5258 45.0778C21.2303 45.3748 21.0647 45.777 21.0654 46.196C21.0661 46.615 21.2331 47.0167 21.5296 47.3127C21.8262 47.6087 22.2281 47.775 22.6471 47.775C23.0661 47.775 23.468 47.6087 23.7645 47.3127C24.0611 47.0167 24.228 46.615 24.2288 46.196C24.2295 45.777 24.0639 45.3748 23.7684 45.0778C23.4728 44.7807 23.0715 44.6131 22.6525 44.6117H22.6498ZM36.6302 46.215C36.6305 46.4212 36.6719 46.6253 36.7519 46.8154C36.8319 47.0055 36.9488 47.1778 37.096 47.3222C37.2432 47.4666 37.4177 47.5803 37.6093 47.6567C37.8008 47.733 38.0057 47.7705 38.2119 47.7669C38.526 47.7668 38.8329 47.6732 39.0936 47.4981C39.3543 47.323 39.557 47.0742 39.6758 46.7834C39.7946 46.4926 39.8241 46.1731 39.7606 45.8655C39.6971 45.5579 39.5435 45.2762 39.3193 45.0562C39.0951 44.8363 38.8105 44.688 38.5018 44.6304C38.193 44.5728 37.8741 44.6084 37.5857 44.7327C37.2972 44.857 37.0523 45.0643 36.8822 45.3283C36.712 45.5923 36.6243 45.901 36.6302 46.215ZM49.0046 47.9023H47.6504C47.4438 47.9049 47.2448 47.9806 47.0886 48.1159C46.9325 48.2513 46.8293 48.4375 46.7973 48.6417C46.7002 49.1484 46.5855 49.6515 46.4533 50.1502H47.5421C47.914 50.1626 48.2757 50.0271 48.5479 49.7732C48.82 49.5194 48.9803 49.1679 48.9938 48.796L49.0046 47.9023Z" fill="black"/>
</g>
<defs>
<clipPath id="clip0_28642_650">
<rect width="65" height="65" fill="white"/>
</clipPath>
</defs>
</svg>
