<svg width="12" height="10" viewBox="0 0 12 10" fill="none" xmlns="http://www.w3.org/2000/svg">
<path d="M10.6357 0.126866L1.736 0.720116C1.57025 0.731554 1.04994 1.03418 0.978691 1.69062L0.383566 7.18943C0.352629 7.4763 0.376254 8.14643 0.937441 8.25087L9.59788 9.8598C9.65263 9.86993 9.70832 9.87499 9.76325 9.87499C9.97269 9.87499 10.7272 9.70662 10.8056 8.9763L11.6161 1.48905C11.6923 0.789116 11.267 0.0839289 10.6357 0.126866ZM1.75963 1.05555L10.6584 0.462116C10.7704 0.453478 10.8822 0.481087 10.9773 0.540866L4.96569 5.9868L1.59275 1.13693C1.64882 1.08799 1.70694 1.05912 1.75963 1.05555ZM0.722566 7.22487L1.31769 1.72624C1.32857 1.62687 1.3535 1.52843 1.39007 1.43843L3.58494 4.54662L0.726504 7.4838C0.714473 7.39799 0.71315 7.31101 0.722566 7.22487ZM9.66107 9.52924L1.00063 7.92049C0.953004 7.91168 0.905754 7.87943 0.863566 7.8288L3.60275 5.01387L3.78013 4.83143L4.898 6.49493L6.64138 4.97112L7.20294 5.71999L10.0205 9.47655C9.90977 9.53325 9.78341 9.55177 9.66107 9.52924ZM11.2773 1.28524L10.4668 8.77249C10.4471 8.95474 10.3811 9.12349 10.28 9.25662L6.89544 4.74424L11.2003 0.795491C11.2691 0.935554 11.2966 1.10618 11.2773 1.28524Z" fill="black"/>
</svg>
