<svg width="14" height="14" viewBox="0 0 14 14" fill="none" xmlns="http://www.w3.org/2000/svg">
<path fill-rule="evenodd" clip-rule="evenodd" d="M7.48646 1.5C6.49611 1.5 5.71619 2.27831 5.71619 3.21053C5.71619 4.14274 6.49611 4.92105 7.48646 4.92105C8.4768 4.92105 9.25673 4.14274 9.25673 3.21053C9.25673 2.27831 8.4768 1.5 7.48646 1.5ZM4.71619 3.21053C4.71619 1.70106 5.96913 0.5 7.48646 0.5C9.00378 0.5 10.2567 1.70106 10.2567 3.21053C10.2567 4.71999 9.00378 5.92105 7.48646 5.92105C5.96913 5.92105 4.71619 4.71999 4.71619 3.21053Z" fill="black"/>
<path fill-rule="evenodd" clip-rule="evenodd" d="M6.83784 8.13159C3.81962 8.13159 1.5 10.2351 1.5 12.6842C1.5 12.9604 1.27614 13.1842 1 13.1842C0.723858 13.1842 0.5 12.9604 0.5 12.6842C0.5 9.55208 3.40784 7.13159 6.83784 7.13159C7.11398 7.13159 7.33784 7.35545 7.33784 7.63159C7.33784 7.90773 7.11398 8.13159 6.83784 8.13159ZM11.3539 8.22072C11.548 8.03171 11.8574 8.03171 12.0515 8.22072L13.3488 9.48388C13.4455 9.578 13.5 9.7072 13.5 9.84212C13.5 9.97704 13.4455 10.1062 13.3488 10.2004L10.1056 13.3582C10.0122 13.4491 9.88706 13.5 9.75676 13.5H8.45946C8.18332 13.5 7.95946 13.2762 7.95946 13V11.7369C7.95946 11.6019 8.01398 11.4727 8.11065 11.3786L11.3539 8.22072ZM8.95946 11.9479V12.5H9.55354L12.2833 9.84212L11.7027 9.27682L8.95946 11.9479Z" fill="black"/>
</svg>
