<svg width="10" height="13" viewBox="0 0 10 13" fill="none" xmlns="http://www.w3.org/2000/svg">
<path d="M4.836 0.00500003L5 2.96809e-08C5.63472 -9.77163e-05 6.24571 0.241233 6.70905 0.67504C7.17238 1.10885 7.45336 1.70265 7.495 2.336L7.5 2.5V3.5H8.5C8.89782 3.5 9.27936 3.65804 9.56066 3.93934C9.84196 4.22064 10 4.60218 10 5V11C10 11.3978 9.84196 11.7794 9.56066 12.0607C9.27936 12.342 8.89782 12.5 8.5 12.5H1.5C1.10218 12.5 0.720644 12.342 0.43934 12.0607C0.158035 11.7794 0 11.3978 0 11V5C0 4.60218 0.158035 4.22064 0.43934 3.93934C0.720644 3.65804 1.10218 3.5 1.5 3.5H2.5V2.5C2.4999 1.86528 2.74123 1.25429 3.17504 0.790955C3.60885 0.327621 4.20265 0.0466375 4.836 0.00500003ZM8.5 4.5H1.5C1.36739 4.5 1.24021 4.55268 1.14645 4.64645C1.05268 4.74021 1 4.86739 1 5V11C1 11.1326 1.05268 11.2598 1.14645 11.3536C1.24021 11.4473 1.36739 11.5 1.5 11.5H8.5C8.63261 11.5 8.75979 11.4473 8.85355 11.3536C8.94732 11.2598 9 11.1326 9 11V5C9 4.86739 8.94732 4.74021 8.85355 4.64645C8.75979 4.55268 8.63261 4.5 8.5 4.5ZM5 7C5.26522 7 5.51957 7.10536 5.70711 7.29289C5.89464 7.48043 6 7.73478 6 8C6 8.26522 5.89464 8.51957 5.70711 8.70711C5.51957 8.89464 5.26522 9 5 9C4.73478 9 4.48043 8.89464 4.29289 8.70711C4.10536 8.51957 4 8.26522 4 8C4 7.73478 4.10536 7.48043 4.29289 7.29289C4.48043 7.10536 4.73478 7 5 7ZM5.144 1.007L5 1C4.62712 1.00002 4.26761 1.13892 3.99158 1.38962C3.71555 1.64032 3.5428 1.98484 3.507 2.356L3.5 2.5V3.5H6.5V2.5C6.49998 2.12712 6.36108 1.76761 6.11038 1.49158C5.85968 1.21555 5.51516 1.0428 5.144 1.007Z" fill="#1E1E1E"/>
</svg>
